<svg xmlns="http://www.w3.org/2000/svg" viewBox="0 0 2560 1600"><defs><style>.cls-1{fill:#fff;}.cls-2{fill:none;stroke:#1100d4;stroke-miterlimit:10;}</style></defs><g id="Layer_2" data-name="Layer 2"><g id="Layer_3" data-name="Layer 3"><rect class="cls-1" width="2560" height="1600"/></g><g id="Layer_1-2" data-name="Layer 1"><line class="cls-2" x1="2518.18" y1="1510.5" x2="2518.18" y2="1520"/><line class="cls-2" x1="2374.18" y1="1510.5" x2="2374.18" y2="1520"/><line class="cls-2" x1="2230.18" y1="1510.5" x2="2230.18" y2="1520"/><line class="cls-2" x1="2086.18" y1="1510.5" x2="2086.18" y2="1520"/><line class="cls-2" x1="1942.18" y1="1510.5" x2="1942.18" y2="1520"/><line class="cls-2" x1="1798.18" y1="1510.5" x2="1798.18" y2="1520"/><line class="cls-2" x1="1654.18" y1="1510.5" x2="1654.18" y2="1520"/><line class="cls-2" x1="1510.18" y1="1510.5" x2="1510.18" y2="1520"/><line class="cls-2" x1="1366.18" y1="1510.5" x2="1366.18" y2="1520"/><line class="cls-2" x1="1222.18" y1="1510.5" x2="1222.18" y2="1520"/><line class="cls-2" x1="1078.18" y1="1510.5" x2="1078.18" y2="1520"/><line class="cls-2" x1="934.18" y1="1510.5" x2="934.18" y2="1520"/><line class="cls-2" x1="790.18" y1="1510.5" x2="790.18" y2="1520"/><line class="cls-2" x1="646.18" y1="1510.5" x2="646.18" y2="1520"/><line class="cls-2" x1="502.18" y1="1510.5" x2="502.18" y2="1520"/><line class="cls-2" x1="358.18" y1="1510.5" x2="358.18" y2="1520"/><line class="cls-2" x1="214.18" y1="1510.5" x2="214.18" y2="1520"/><line class="cls-2" x1="70.18" y1="1510.5" x2="70.18" y2="1520"/><line class="cls-2" x1="2518.18" y1="1366.5" x2="2518.18" y2="1376"/><line class="cls-2" x1="2374.18" y1="1366.5" x2="2374.18" y2="1376"/><line class="cls-2" x1="2230.18" y1="1366.5" x2="2230.18" y2="1376"/><line class="cls-2" x1="2086.18" y1="1366.5" x2="2086.18" y2="1376"/><line class="cls-2" x1="1942.18" y1="1366.5" x2="1942.18" y2="1376"/><line class="cls-2" x1="1798.18" y1="1366.5" x2="1798.18" y2="1376"/><line class="cls-2" x1="1654.18" y1="1366.5" x2="1654.18" y2="1376"/><line class="cls-2" x1="1510.18" y1="1366.5" x2="1510.18" y2="1376"/><line class="cls-2" x1="1366.18" y1="1366.5" x2="1366.18" y2="1376"/><line class="cls-2" x1="1222.18" y1="1366.5" x2="1222.18" y2="1376"/><line class="cls-2" x1="1078.18" y1="1366.5" x2="1078.18" y2="1376"/><line class="cls-2" x1="934.18" y1="1366.5" x2="934.18" y2="1376"/><line class="cls-2" x1="790.18" y1="1366.5" x2="790.18" y2="1376"/><line class="cls-2" x1="646.18" y1="1366.5" x2="646.18" y2="1376"/><line class="cls-2" x1="502.18" y1="1366.5" x2="502.18" y2="1376"/><line class="cls-2" x1="358.18" y1="1366.5" x2="358.18" y2="1376"/><line class="cls-2" x1="214.18" y1="1366.5" x2="214.18" y2="1376"/><line class="cls-2" x1="70.18" y1="1366.5" x2="70.18" y2="1376"/><line class="cls-2" x1="2518.18" y1="1222.5" x2="2518.18" y2="1232"/><line class="cls-2" x1="2374.18" y1="1222.5" x2="2374.18" y2="1232"/><line class="cls-2" x1="2230.18" y1="1222.5" x2="2230.18" y2="1232"/><line class="cls-2" x1="2086.18" y1="1222.5" x2="2086.18" y2="1232"/><line class="cls-2" x1="1942.18" y1="1222.5" x2="1942.18" y2="1232"/><line class="cls-2" x1="1798.18" y1="1222.5" x2="1798.18" y2="1232"/><line class="cls-2" x1="1654.18" y1="1222.5" x2="1654.18" y2="1232"/><line class="cls-2" x1="1510.18" y1="1222.5" x2="1510.18" y2="1232"/><line class="cls-2" x1="1366.18" y1="1222.5" x2="1366.18" y2="1232"/><line class="cls-2" x1="1222.18" y1="1222.5" x2="1222.18" y2="1232"/><line class="cls-2" x1="1078.18" y1="1222.5" x2="1078.18" y2="1232"/><line class="cls-2" x1="934.18" y1="1222.5" x2="934.18" y2="1232"/><line class="cls-2" x1="790.18" y1="1222.5" x2="790.18" y2="1232"/><line class="cls-2" x1="646.18" y1="1222.5" x2="646.18" y2="1232"/><line class="cls-2" x1="502.18" y1="1222.5" x2="502.18" y2="1232"/><line class="cls-2" x1="358.18" y1="1222.5" x2="358.18" y2="1232"/><line class="cls-2" x1="214.18" y1="1222.5" x2="214.18" y2="1232"/><line class="cls-2" x1="70.18" y1="1222.5" x2="70.18" y2="1232"/><line class="cls-2" x1="2518.18" y1="1078.5" x2="2518.18" y2="1088"/><line class="cls-2" x1="2374.18" y1="1078.5" x2="2374.18" y2="1088"/><line class="cls-2" x1="2230.18" y1="1078.5" x2="2230.18" y2="1088"/><line class="cls-2" x1="2086.18" y1="1078.5" x2="2086.18" y2="1088"/><line class="cls-2" x1="1942.18" y1="1078.5" x2="1942.18" y2="1088"/><line class="cls-2" x1="1798.18" y1="1078.5" x2="1798.18" y2="1088"/><line class="cls-2" x1="1654.18" y1="1078.5" x2="1654.18" y2="1088"/><line class="cls-2" x1="1510.18" y1="1078.5" x2="1510.18" y2="1088"/><line class="cls-2" x1="1366.18" y1="1078.5" x2="1366.18" y2="1088"/><line class="cls-2" x1="1222.18" y1="1078.5" x2="1222.18" y2="1088"/><line class="cls-2" x1="1078.18" y1="1078.5" x2="1078.18" y2="1088"/><line class="cls-2" x1="934.18" y1="1078.5" x2="934.18" y2="1088"/><line class="cls-2" x1="790.18" y1="1078.5" x2="790.18" y2="1088"/><line class="cls-2" x1="646.18" y1="1078.5" x2="646.18" y2="1088"/><line class="cls-2" x1="502.18" y1="1078.5" x2="502.18" y2="1088"/><line class="cls-2" x1="358.18" y1="1078.5" x2="358.18" y2="1088"/><line class="cls-2" x1="214.18" y1="1078.5" x2="214.18" y2="1088"/><line class="cls-2" x1="70.18" y1="1078.5" x2="70.18" y2="1088"/><line class="cls-2" x1="2518.18" y1="934.5" x2="2518.18" y2="944"/><line class="cls-2" x1="2374.18" y1="934.5" x2="2374.18" y2="944"/><line class="cls-2" x1="2230.18" y1="934.5" x2="2230.18" y2="944"/><line class="cls-2" x1="2086.18" y1="934.5" x2="2086.18" y2="944"/><line class="cls-2" x1="1942.18" y1="934.5" x2="1942.18" y2="944"/><line class="cls-2" x1="1798.18" y1="934.5" x2="1798.18" y2="944"/><line class="cls-2" x1="1654.18" y1="934.5" x2="1654.18" y2="944"/><line class="cls-2" x1="1510.18" y1="934.5" x2="1510.18" y2="944"/><line class="cls-2" x1="1366.18" y1="934.5" x2="1366.18" y2="944"/><line class="cls-2" x1="1222.18" y1="934.5" x2="1222.18" y2="944"/><line class="cls-2" x1="1078.18" y1="934.5" x2="1078.18" y2="944"/><line class="cls-2" x1="934.18" y1="934.5" x2="934.18" y2="944"/><line class="cls-2" x1="790.18" y1="934.5" x2="790.18" y2="944"/><line class="cls-2" x1="646.18" y1="934.5" x2="646.18" y2="944"/><line class="cls-2" x1="502.18" y1="934.5" x2="502.18" y2="944"/><line class="cls-2" x1="358.18" y1="934.5" x2="358.18" y2="944"/><line class="cls-2" x1="214.18" y1="934.5" x2="214.18" y2="944"/><line class="cls-2" x1="70.18" y1="934.5" x2="70.18" y2="944"/><line class="cls-2" x1="2518.18" y1="790.5" x2="2518.18" y2="800"/><line class="cls-2" x1="2374.18" y1="790.5" x2="2374.18" y2="800"/><line class="cls-2" x1="2230.18" y1="790.5" x2="2230.18" y2="800"/><line class="cls-2" x1="2086.18" y1="790.5" x2="2086.18" y2="800"/><line class="cls-2" x1="1942.18" y1="790.5" x2="1942.18" y2="800"/><line class="cls-2" x1="1798.18" y1="790.5" x2="1798.18" y2="800"/><line class="cls-2" x1="1654.18" y1="790.5" x2="1654.18" y2="800"/><line class="cls-2" x1="1510.18" y1="790.5" x2="1510.18" y2="800"/><line class="cls-2" x1="1366.18" y1="790.5" x2="1366.18" y2="800"/><line class="cls-2" x1="1222.18" y1="790.5" x2="1222.18" y2="800"/><line class="cls-2" x1="1078.18" y1="790.5" x2="1078.18" y2="800"/><line class="cls-2" x1="934.18" y1="790.5" x2="934.18" y2="800"/><line class="cls-2" x1="790.18" y1="790.5" x2="790.18" y2="800"/><line class="cls-2" x1="646.18" y1="790.5" x2="646.18" y2="800"/><line class="cls-2" x1="502.18" y1="790.5" x2="502.18" y2="800"/><line class="cls-2" x1="358.18" y1="790.5" x2="358.18" y2="800"/><line class="cls-2" x1="214.18" y1="790.5" x2="214.18" y2="800"/><line class="cls-2" x1="70.18" y1="790.5" x2="70.18" y2="800"/><line class="cls-2" x1="2518.18" y1="646.5" x2="2518.18" y2="656"/><line class="cls-2" x1="2374.18" y1="646.5" x2="2374.18" y2="656"/><line class="cls-2" x1="2230.18" y1="646.5" x2="2230.18" y2="656"/><line class="cls-2" x1="2086.18" y1="646.5" x2="2086.18" y2="656"/><line class="cls-2" x1="1942.18" y1="646.5" x2="1942.18" y2="656"/><line class="cls-2" x1="1798.18" y1="646.5" x2="1798.18" y2="656"/><line class="cls-2" x1="1654.18" y1="646.5" x2="1654.18" y2="656"/><line class="cls-2" x1="1510.18" y1="646.5" x2="1510.18" y2="656"/><line class="cls-2" x1="1366.18" y1="646.5" x2="1366.18" y2="656"/><line class="cls-2" x1="1222.18" y1="646.5" x2="1222.18" y2="656"/><line class="cls-2" x1="1078.18" y1="646.5" x2="1078.18" y2="656"/><line class="cls-2" x1="934.18" y1="646.5" x2="934.18" y2="656"/><line class="cls-2" x1="790.18" y1="646.5" x2="790.18" y2="656"/><line class="cls-2" x1="646.18" y1="646.5" x2="646.18" y2="656"/><line class="cls-2" x1="502.18" y1="646.5" x2="502.18" y2="656"/><line class="cls-2" x1="358.18" y1="646.5" x2="358.18" y2="656"/><line class="cls-2" x1="214.18" y1="646.5" x2="214.18" y2="656"/><line class="cls-2" x1="70.18" y1="646.5" x2="70.18" y2="656"/><line class="cls-2" x1="2518.18" y1="502.5" x2="2518.18" y2="512"/><line class="cls-2" x1="2374.18" y1="502.5" x2="2374.18" y2="512"/><line class="cls-2" x1="2230.18" y1="502.5" x2="2230.18" y2="512"/><line class="cls-2" x1="2086.18" y1="502.5" x2="2086.18" y2="512"/><line class="cls-2" x1="1942.18" y1="502.5" x2="1942.18" y2="512"/><line class="cls-2" x1="1798.18" y1="502.5" x2="1798.18" y2="512"/><line class="cls-2" x1="1654.18" y1="502.5" x2="1654.18" y2="512"/><line class="cls-2" x1="1510.18" y1="502.5" x2="1510.18" y2="512"/><line class="cls-2" x1="1366.18" y1="502.5" x2="1366.18" y2="512"/><line class="cls-2" x1="1222.18" y1="502.5" x2="1222.18" y2="512"/><line class="cls-2" x1="1078.18" y1="502.5" x2="1078.18" y2="512"/><line class="cls-2" x1="934.18" y1="502.5" x2="934.18" y2="512"/><line class="cls-2" x1="790.18" y1="502.5" x2="790.18" y2="512"/><line class="cls-2" x1="646.18" y1="502.5" x2="646.18" y2="512"/><line class="cls-2" x1="502.18" y1="502.5" x2="502.18" y2="512"/><line class="cls-2" x1="358.18" y1="502.5" x2="358.18" y2="512"/><line class="cls-2" x1="214.18" y1="502.5" x2="214.18" y2="512"/><line class="cls-2" x1="70.18" y1="502.5" x2="70.18" y2="512"/><line class="cls-2" x1="2518.18" y1="358.5" x2="2518.18" y2="368"/><line class="cls-2" x1="2374.18" y1="358.5" x2="2374.18" y2="368"/><line class="cls-2" x1="2230.18" y1="358.5" x2="2230.18" y2="368"/><line class="cls-2" x1="2086.18" y1="358.5" x2="2086.18" y2="368"/><line class="cls-2" x1="1942.18" y1="358.5" x2="1942.18" y2="368"/><line class="cls-2" x1="1798.18" y1="358.5" x2="1798.18" y2="368"/><line class="cls-2" x1="1654.18" y1="358.5" x2="1654.18" y2="368"/><line class="cls-2" x1="1510.18" y1="358.5" x2="1510.18" y2="368"/><line class="cls-2" x1="1366.18" y1="358.5" x2="1366.18" y2="368"/><line class="cls-2" x1="1222.18" y1="358.5" x2="1222.18" y2="368"/><line class="cls-2" x1="1078.18" y1="358.5" x2="1078.18" y2="368"/><line class="cls-2" x1="934.18" y1="358.5" x2="934.18" y2="368"/><line class="cls-2" x1="790.18" y1="358.5" x2="790.18" y2="368"/><line class="cls-2" x1="646.18" y1="358.5" x2="646.18" y2="368"/><line class="cls-2" x1="502.18" y1="358.5" x2="502.18" y2="368"/><line class="cls-2" x1="358.18" y1="358.5" x2="358.18" y2="368"/><line class="cls-2" x1="214.18" y1="358.5" x2="214.18" y2="368"/><line class="cls-2" x1="70.18" y1="358.5" x2="70.18" y2="368"/><line class="cls-2" x1="2518.18" y1="214.5" x2="2518.18" y2="224"/><line class="cls-2" x1="2374.18" y1="214.5" x2="2374.18" y2="224"/><line class="cls-2" x1="2230.18" y1="214.5" x2="2230.18" y2="224"/><line class="cls-2" x1="2086.18" y1="214.5" x2="2086.18" y2="224"/><line class="cls-2" x1="1942.18" y1="214.5" x2="1942.18" y2="224"/><line class="cls-2" x1="1798.18" y1="214.5" x2="1798.18" y2="224"/><line class="cls-2" x1="1654.18" y1="214.5" x2="1654.18" y2="224"/><line class="cls-2" x1="1510.18" y1="214.5" x2="1510.18" y2="224"/><line class="cls-2" x1="1366.18" y1="214.5" x2="1366.18" y2="224"/><line class="cls-2" x1="1222.18" y1="214.5" x2="1222.18" y2="224"/><line class="cls-2" x1="1078.18" y1="214.5" x2="1078.18" y2="224"/><line class="cls-2" x1="934.18" y1="214.5" x2="934.18" y2="224"/><line class="cls-2" x1="790.18" y1="214.5" x2="790.18" y2="224"/><line class="cls-2" x1="646.18" y1="214.5" x2="646.18" y2="224"/><line class="cls-2" x1="502.18" y1="214.5" x2="502.18" y2="224"/><line class="cls-2" x1="358.18" y1="214.5" x2="358.18" y2="224"/><line class="cls-2" x1="214.18" y1="214.5" x2="214.18" y2="224"/><line class="cls-2" x1="70.18" y1="214.5" x2="70.18" y2="224"/><line class="cls-2" x1="2518.18" y1="70.5" x2="2518.18" y2="80"/><line class="cls-2" x1="2374.18" y1="70.5" x2="2374.18" y2="80"/><line class="cls-2" x1="2230.18" y1="70.5" x2="2230.18" y2="80"/><line class="cls-2" x1="2086.18" y1="70.5" x2="2086.18" y2="80"/><line class="cls-2" x1="1942.18" y1="70.5" x2="1942.18" y2="80"/><line class="cls-2" x1="1798.18" y1="70.5" x2="1798.18" y2="80"/><line class="cls-2" x1="1654.18" y1="70.5" x2="1654.18" y2="80"/><line class="cls-2" x1="1510.18" y1="70.5" x2="1510.18" y2="80"/><line class="cls-2" x1="1366.18" y1="70.5" x2="1366.18" y2="80"/><line class="cls-2" x1="1222.18" y1="70.5" x2="1222.18" y2="80"/><line class="cls-2" x1="1078.18" y1="70.5" x2="1078.18" y2="80"/><line class="cls-2" x1="934.18" y1="70.5" x2="934.18" y2="80"/><line class="cls-2" x1="790.18" y1="70.5" x2="790.18" y2="80"/><line class="cls-2" x1="646.18" y1="70.5" x2="646.18" y2="80"/><line class="cls-2" x1="502.18" y1="70.5" x2="502.18" y2="80"/><line class="cls-2" x1="358.18" y1="70.5" x2="358.18" y2="80"/><line class="cls-2" x1="214.18" y1="70.5" x2="214.18" y2="80"/><line class="cls-2" x1="70.18" y1="70.5" x2="70.18" y2="80"/><line class="cls-2" x1="2513.43" y1="1515.25" x2="2522.93" y2="1515.25"/><line class="cls-2" x1="2369.43" y1="1515.25" x2="2378.93" y2="1515.25"/><line class="cls-2" x1="2225.43" y1="1515.25" x2="2234.93" y2="1515.25"/><line class="cls-2" x1="2081.43" y1="1515.25" x2="2090.93" y2="1515.25"/><line class="cls-2" x1="1937.43" y1="1515.25" x2="1946.93" y2="1515.25"/><line class="cls-2" x1="1793.43" y1="1515.25" x2="1802.93" y2="1515.25"/><line class="cls-2" x1="1649.43" y1="1515.25" x2="1658.93" y2="1515.25"/><line class="cls-2" x1="1505.43" y1="1515.25" x2="1514.93" y2="1515.25"/><line class="cls-2" x1="1361.43" y1="1515.25" x2="1370.93" y2="1515.25"/><line class="cls-2" x1="1217.43" y1="1515.25" x2="1226.93" y2="1515.25"/><line class="cls-2" x1="1073.43" y1="1515.25" x2="1082.93" y2="1515.25"/><line class="cls-2" x1="929.43" y1="1515.25" x2="938.93" y2="1515.25"/><line class="cls-2" x1="785.43" y1="1515.25" x2="794.93" y2="1515.25"/><line class="cls-2" x1="641.43" y1="1515.25" x2="650.93" y2="1515.25"/><line class="cls-2" x1="497.43" y1="1515.25" x2="506.93" y2="1515.25"/><line class="cls-2" x1="353.43" y1="1515.25" x2="362.93" y2="1515.25"/><line class="cls-2" x1="209.43" y1="1515.25" x2="218.93" y2="1515.25"/><line class="cls-2" x1="65.43" y1="1515.25" x2="74.93" y2="1515.25"/><line class="cls-2" x1="2513.43" y1="1371.25" x2="2522.93" y2="1371.25"/><line class="cls-2" x1="2369.43" y1="1371.25" x2="2378.93" y2="1371.25"/><line class="cls-2" x1="2225.43" y1="1371.25" x2="2234.93" y2="1371.25"/><line class="cls-2" x1="2081.43" y1="1371.25" x2="2090.93" y2="1371.25"/><line class="cls-2" x1="1937.43" y1="1371.25" x2="1946.93" y2="1371.25"/><line class="cls-2" x1="1793.43" y1="1371.25" x2="1802.93" y2="1371.25"/><line class="cls-2" x1="1649.43" y1="1371.25" x2="1658.93" y2="1371.25"/><line class="cls-2" x1="1505.43" y1="1371.25" x2="1514.93" y2="1371.25"/><line class="cls-2" x1="1361.43" y1="1371.25" x2="1370.93" y2="1371.25"/><line class="cls-2" x1="1217.43" y1="1371.25" x2="1226.93" y2="1371.25"/><line class="cls-2" x1="1073.43" y1="1371.25" x2="1082.93" y2="1371.25"/><line class="cls-2" x1="929.43" y1="1371.25" x2="938.93" y2="1371.25"/><line class="cls-2" x1="785.43" y1="1371.25" x2="794.93" y2="1371.25"/><line class="cls-2" x1="641.43" y1="1371.25" x2="650.93" y2="1371.25"/><line class="cls-2" x1="497.43" y1="1371.25" x2="506.93" y2="1371.25"/><line class="cls-2" x1="353.43" y1="1371.25" x2="362.93" y2="1371.25"/><line class="cls-2" x1="209.43" y1="1371.25" x2="218.93" y2="1371.25"/><line class="cls-2" x1="65.43" y1="1371.25" x2="74.93" y2="1371.25"/><line class="cls-2" x1="2513.43" y1="1227.25" x2="2522.93" y2="1227.25"/><line class="cls-2" x1="2369.43" y1="1227.25" x2="2378.93" y2="1227.25"/><line class="cls-2" x1="2225.43" y1="1227.25" x2="2234.93" y2="1227.25"/><line class="cls-2" x1="2081.43" y1="1227.25" x2="2090.93" y2="1227.25"/><line class="cls-2" x1="1937.43" y1="1227.25" x2="1946.93" y2="1227.25"/><line class="cls-2" x1="1793.43" y1="1227.25" x2="1802.93" y2="1227.25"/><line class="cls-2" x1="1649.43" y1="1227.25" x2="1658.93" y2="1227.25"/><line class="cls-2" x1="1505.43" y1="1227.25" x2="1514.93" y2="1227.25"/><line class="cls-2" x1="1361.43" y1="1227.25" x2="1370.93" y2="1227.25"/><line class="cls-2" x1="1217.43" y1="1227.25" x2="1226.93" y2="1227.25"/><line class="cls-2" x1="1073.43" y1="1227.25" x2="1082.93" y2="1227.25"/><line class="cls-2" x1="929.43" y1="1227.25" x2="938.93" y2="1227.25"/><line class="cls-2" x1="785.43" y1="1227.25" x2="794.93" y2="1227.25"/><line class="cls-2" x1="641.43" y1="1227.25" x2="650.93" y2="1227.25"/><line class="cls-2" x1="497.43" y1="1227.25" x2="506.93" y2="1227.25"/><line class="cls-2" x1="353.43" y1="1227.25" x2="362.93" y2="1227.25"/><line class="cls-2" x1="209.43" y1="1227.25" x2="218.93" y2="1227.25"/><line class="cls-2" x1="65.43" y1="1227.25" x2="74.93" y2="1227.25"/><line class="cls-2" x1="2513.43" y1="1083.25" x2="2522.93" y2="1083.25"/><line class="cls-2" x1="2369.43" y1="1083.25" x2="2378.93" y2="1083.25"/><line class="cls-2" x1="2225.43" y1="1083.25" x2="2234.93" y2="1083.25"/><line class="cls-2" x1="2081.43" y1="1083.25" x2="2090.93" y2="1083.25"/><line class="cls-2" x1="1937.43" y1="1083.25" x2="1946.93" y2="1083.25"/><line class="cls-2" x1="1793.43" y1="1083.25" x2="1802.93" y2="1083.25"/><line class="cls-2" x1="1649.43" y1="1083.25" x2="1658.93" y2="1083.25"/><line class="cls-2" x1="1505.43" y1="1083.25" x2="1514.93" y2="1083.25"/><line class="cls-2" x1="1361.43" y1="1083.25" x2="1370.93" y2="1083.25"/><line class="cls-2" x1="1217.43" y1="1083.25" x2="1226.93" y2="1083.25"/><line class="cls-2" x1="1073.43" y1="1083.25" x2="1082.93" y2="1083.25"/><line class="cls-2" x1="929.43" y1="1083.25" x2="938.93" y2="1083.25"/><line class="cls-2" x1="785.43" y1="1083.25" x2="794.93" y2="1083.25"/><line class="cls-2" x1="641.43" y1="1083.25" x2="650.93" y2="1083.25"/><line class="cls-2" x1="497.43" y1="1083.25" x2="506.93" y2="1083.25"/><line class="cls-2" x1="353.43" y1="1083.25" x2="362.93" y2="1083.25"/><line class="cls-2" x1="209.43" y1="1083.25" x2="218.93" y2="1083.25"/><line class="cls-2" x1="65.43" y1="1083.25" x2="74.93" y2="1083.25"/><line class="cls-2" x1="2513.43" y1="939.25" x2="2522.93" y2="939.25"/><line class="cls-2" x1="2369.43" y1="939.25" x2="2378.93" y2="939.25"/><line class="cls-2" x1="2225.43" y1="939.25" x2="2234.93" y2="939.25"/><line class="cls-2" x1="2081.43" y1="939.25" x2="2090.93" y2="939.25"/><line class="cls-2" x1="1937.43" y1="939.25" x2="1946.93" y2="939.25"/><line class="cls-2" x1="1793.43" y1="939.25" x2="1802.93" y2="939.25"/><line class="cls-2" x1="1649.43" y1="939.25" x2="1658.93" y2="939.25"/><line class="cls-2" x1="1505.43" y1="939.25" x2="1514.93" y2="939.25"/><line class="cls-2" x1="1361.43" y1="939.25" x2="1370.93" y2="939.25"/><line class="cls-2" x1="1217.43" y1="939.25" x2="1226.93" y2="939.25"/><line class="cls-2" x1="1073.43" y1="939.25" x2="1082.93" y2="939.25"/><line class="cls-2" x1="929.43" y1="939.25" x2="938.93" y2="939.25"/><line class="cls-2" x1="785.43" y1="939.25" x2="794.93" y2="939.25"/><line class="cls-2" x1="641.43" y1="939.25" x2="650.93" y2="939.25"/><line class="cls-2" x1="497.43" y1="939.25" x2="506.93" y2="939.25"/><line class="cls-2" x1="353.43" y1="939.25" x2="362.93" y2="939.25"/><line class="cls-2" x1="209.43" y1="939.25" x2="218.93" y2="939.25"/><line class="cls-2" x1="65.43" y1="939.25" x2="74.93" y2="939.25"/><line class="cls-2" x1="2513.43" y1="795.25" x2="2522.93" y2="795.25"/><line class="cls-2" x1="2369.43" y1="795.25" x2="2378.93" y2="795.25"/><line class="cls-2" x1="2225.43" y1="795.25" x2="2234.93" y2="795.25"/><line class="cls-2" x1="2081.43" y1="795.25" x2="2090.93" y2="795.25"/><line class="cls-2" x1="1937.43" y1="795.25" x2="1946.93" y2="795.25"/><line class="cls-2" x1="1793.43" y1="795.25" x2="1802.93" y2="795.25"/><line class="cls-2" x1="1649.43" y1="795.25" x2="1658.93" y2="795.25"/><line class="cls-2" x1="1505.43" y1="795.25" x2="1514.93" y2="795.25"/><line class="cls-2" x1="1361.43" y1="795.25" x2="1370.93" y2="795.25"/><line class="cls-2" x1="1217.43" y1="795.25" x2="1226.93" y2="795.25"/><line class="cls-2" x1="1073.43" y1="795.25" x2="1082.93" y2="795.25"/><line class="cls-2" x1="929.43" y1="795.25" x2="938.93" y2="795.25"/><line class="cls-2" x1="785.43" y1="795.25" x2="794.93" y2="795.25"/><line class="cls-2" x1="641.43" y1="795.25" x2="650.93" y2="795.25"/><line class="cls-2" x1="497.43" y1="795.25" x2="506.93" y2="795.25"/><line class="cls-2" x1="353.43" y1="795.25" x2="362.93" y2="795.25"/><line class="cls-2" x1="209.43" y1="795.25" x2="218.93" y2="795.25"/><line class="cls-2" x1="65.43" y1="795.25" x2="74.93" y2="795.25"/><line class="cls-2" x1="2513.43" y1="651.25" x2="2522.93" y2="651.25"/><line class="cls-2" x1="2369.43" y1="651.25" x2="2378.93" y2="651.25"/><line class="cls-2" x1="2225.43" y1="651.25" x2="2234.93" y2="651.25"/><line class="cls-2" x1="2081.43" y1="651.25" x2="2090.93" y2="651.25"/><line class="cls-2" x1="1937.43" y1="651.25" x2="1946.93" y2="651.25"/><line class="cls-2" x1="1793.43" y1="651.25" x2="1802.93" y2="651.25"/><line class="cls-2" x1="1649.43" y1="651.25" x2="1658.93" y2="651.25"/><line class="cls-2" x1="1505.43" y1="651.25" x2="1514.93" y2="651.25"/><line class="cls-2" x1="1361.43" y1="651.25" x2="1370.93" y2="651.25"/><line class="cls-2" x1="1217.43" y1="651.25" x2="1226.93" y2="651.25"/><line class="cls-2" x1="1073.43" y1="651.25" x2="1082.93" y2="651.25"/><line class="cls-2" x1="929.43" y1="651.25" x2="938.93" y2="651.25"/><line class="cls-2" x1="785.43" y1="651.25" x2="794.93" y2="651.25"/><line class="cls-2" x1="641.43" y1="651.25" x2="650.93" y2="651.25"/><line class="cls-2" x1="497.43" y1="651.25" x2="506.93" y2="651.25"/><line class="cls-2" x1="353.43" y1="651.25" x2="362.93" y2="651.25"/><line class="cls-2" x1="209.43" y1="651.25" x2="218.93" y2="651.25"/><line class="cls-2" x1="65.43" y1="651.25" x2="74.93" y2="651.25"/><line class="cls-2" x1="2513.43" y1="507.25" x2="2522.93" y2="507.25"/><line class="cls-2" x1="2369.43" y1="507.25" x2="2378.93" y2="507.25"/><line class="cls-2" x1="2225.43" y1="507.25" x2="2234.93" y2="507.25"/><line class="cls-2" x1="2081.43" y1="507.25" x2="2090.93" y2="507.25"/><line class="cls-2" x1="1937.43" y1="507.25" x2="1946.93" y2="507.25"/><line class="cls-2" x1="1793.43" y1="507.25" x2="1802.93" y2="507.25"/><line class="cls-2" x1="1649.43" y1="507.25" x2="1658.93" y2="507.25"/><line class="cls-2" x1="1505.43" y1="507.25" x2="1514.93" y2="507.25"/><line class="cls-2" x1="1361.43" y1="507.25" x2="1370.93" y2="507.25"/><line class="cls-2" x1="1217.43" y1="507.25" x2="1226.93" y2="507.25"/><line class="cls-2" x1="1073.43" y1="507.25" x2="1082.93" y2="507.25"/><line class="cls-2" x1="929.43" y1="507.25" x2="938.93" y2="507.25"/><line class="cls-2" x1="785.43" y1="507.25" x2="794.93" y2="507.25"/><line class="cls-2" x1="641.43" y1="507.25" x2="650.93" y2="507.25"/><line class="cls-2" x1="497.43" y1="507.25" x2="506.93" y2="507.25"/><line class="cls-2" x1="353.43" y1="507.25" x2="362.93" y2="507.25"/><line class="cls-2" x1="209.43" y1="507.25" x2="218.93" y2="507.25"/><line class="cls-2" x1="65.43" y1="507.25" x2="74.93" y2="507.25"/><line class="cls-2" x1="2513.43" y1="363.25" x2="2522.93" y2="363.25"/><line class="cls-2" x1="2369.43" y1="363.25" x2="2378.93" y2="363.25"/><line class="cls-2" x1="2225.43" y1="363.25" x2="2234.93" y2="363.25"/><line class="cls-2" x1="2081.43" y1="363.25" x2="2090.93" y2="363.25"/><line class="cls-2" x1="1937.43" y1="363.25" x2="1946.93" y2="363.25"/><line class="cls-2" x1="1793.43" y1="363.25" x2="1802.93" y2="363.25"/><line class="cls-2" x1="1649.43" y1="363.25" x2="1658.93" y2="363.25"/><line class="cls-2" x1="1505.43" y1="363.25" x2="1514.93" y2="363.25"/><line class="cls-2" x1="1361.43" y1="363.25" x2="1370.93" y2="363.25"/><line class="cls-2" x1="1217.43" y1="363.25" x2="1226.93" y2="363.25"/><line class="cls-2" x1="1073.43" y1="363.25" x2="1082.93" y2="363.25"/><line class="cls-2" x1="929.43" y1="363.25" x2="938.93" y2="363.25"/><line class="cls-2" x1="785.43" y1="363.25" x2="794.93" y2="363.25"/><line class="cls-2" x1="641.43" y1="363.25" x2="650.93" y2="363.25"/><line class="cls-2" x1="497.43" y1="363.25" x2="506.93" y2="363.25"/><line class="cls-2" x1="353.43" y1="363.25" x2="362.93" y2="363.25"/><line class="cls-2" x1="209.43" y1="363.25" x2="218.93" y2="363.25"/><line class="cls-2" x1="65.43" y1="363.25" x2="74.93" y2="363.25"/><line class="cls-2" x1="2513.43" y1="219.25" x2="2522.93" y2="219.25"/><line class="cls-2" x1="2369.43" y1="219.25" x2="2378.93" y2="219.25"/><line class="cls-2" x1="2225.43" y1="219.25" x2="2234.93" y2="219.25"/><line class="cls-2" x1="2081.43" y1="219.25" x2="2090.93" y2="219.25"/><line class="cls-2" x1="1937.43" y1="219.25" x2="1946.93" y2="219.25"/><line class="cls-2" x1="1793.43" y1="219.25" x2="1802.93" y2="219.25"/><line class="cls-2" x1="1649.43" y1="219.25" x2="1658.93" y2="219.25"/><line class="cls-2" x1="1505.43" y1="219.25" x2="1514.93" y2="219.25"/><line class="cls-2" x1="1361.43" y1="219.25" x2="1370.93" y2="219.25"/><line class="cls-2" x1="1217.43" y1="219.25" x2="1226.93" y2="219.25"/><line class="cls-2" x1="1073.43" y1="219.25" x2="1082.93" y2="219.25"/><line class="cls-2" x1="929.43" y1="219.25" x2="938.93" y2="219.25"/><line class="cls-2" x1="785.43" y1="219.25" x2="794.93" y2="219.25"/><line class="cls-2" x1="641.43" y1="219.25" x2="650.93" y2="219.25"/><line class="cls-2" x1="497.43" y1="219.25" x2="506.93" y2="219.25"/><line class="cls-2" x1="353.43" y1="219.25" x2="362.93" y2="219.25"/><line class="cls-2" x1="209.43" y1="219.25" x2="218.93" y2="219.25"/><line class="cls-2" x1="65.43" y1="219.25" x2="74.93" y2="219.25"/><line class="cls-2" x1="2513.43" y1="75.25" x2="2522.93" y2="75.25"/><line class="cls-2" x1="2369.43" y1="75.25" x2="2378.93" y2="75.25"/><line class="cls-2" x1="2225.43" y1="75.25" x2="2234.93" y2="75.25"/><line class="cls-2" x1="2081.43" y1="75.25" x2="2090.93" y2="75.25"/><line class="cls-2" x1="1937.43" y1="75.25" x2="1946.93" y2="75.25"/><line class="cls-2" x1="1793.43" y1="75.25" x2="1802.93" y2="75.25"/><line class="cls-2" x1="1649.43" y1="75.25" x2="1658.93" y2="75.25"/><line class="cls-2" x1="1505.43" y1="75.25" x2="1514.93" y2="75.25"/><line class="cls-2" x1="1361.43" y1="75.25" x2="1370.93" y2="75.25"/><line class="cls-2" x1="1217.43" y1="75.25" x2="1226.93" y2="75.25"/><line class="cls-2" x1="1073.43" y1="75.25" x2="1082.93" y2="75.25"/><line class="cls-2" x1="929.43" y1="75.25" x2="938.93" y2="75.25"/><line class="cls-2" x1="785.43" y1="75.25" x2="794.93" y2="75.25"/><line class="cls-2" x1="641.43" y1="75.25" x2="650.93" y2="75.25"/><line class="cls-2" x1="497.43" y1="75.25" x2="506.93" y2="75.25"/><line class="cls-2" x1="353.43" y1="75.25" x2="362.93" y2="75.25"/><line class="cls-2" x1="209.43" y1="75.25" x2="218.93" y2="75.25"/><line class="cls-2" x1="65.43" y1="75.25" x2="74.93" y2="75.25"/></g></g></svg>